<svg width="33" height="33" viewBox="0 0 33 33" fill="none" xmlns="http://www.w3.org/2000/svg">
<path d="M24.1725 16.5C24.1684 14.9644 23.7058 13.3975 22.811 12.1424C22.5651 11.7972 22.3009 11.4622 22.0063 11.1565C21.7098 10.8498 21.3818 10.5846 21.0437 10.3265C20.4425 9.86695 19.7704 9.5309 19.0618 9.26874C18.3259 8.99645 17.5314 8.86082 16.7489 8.83146C15.9655 8.80211 15.1587 8.90131 14.4046 9.11589C12.9623 9.52685 11.6059 10.3791 10.6504 11.5401C10.3842 11.863 10.1301 12.2001 9.91348 12.5594C9.6908 12.9289 9.51872 13.3186 9.35474 13.7164C9.05715 14.4381 8.90735 15.2084 8.84661 15.9847C8.78487 16.7702 8.86585 17.58 9.05108 18.3452C9.22923 19.0811 9.53087 19.8058 9.92259 20.4526C10.6959 21.729 11.861 22.8171 13.2264 23.4346C13.6202 23.6127 14.022 23.7757 14.4381 23.8921C14.8601 24.0095 15.2903 24.0743 15.7246 24.1259C16.5192 24.2211 17.3289 24.1583 18.1114 24.0004C18.8513 23.8506 19.577 23.5672 20.237 23.2018C20.8939 22.8374 21.5103 22.3617 22.0296 21.8181C23.0732 20.7259 23.8263 19.3038 24.055 17.8047C24.1208 17.3715 24.1714 16.9382 24.1725 16.5ZM21.7047 17.2034C21.6308 17.6599 21.5093 18.1073 21.3413 18.5375C21.1601 18.9374 20.9395 19.3179 20.6824 19.6742C20.3838 20.0457 20.0457 20.3838 19.6742 20.6824C19.3179 20.9395 18.9383 21.1591 18.5375 21.3413C18.1073 21.5094 17.6609 21.6308 17.2044 21.7047C16.7358 21.7543 16.2641 21.7543 15.7954 21.7047C15.3389 21.6308 14.8925 21.5094 14.4623 21.3413C14.0625 21.1602 13.6819 20.9395 13.3256 20.6824C12.9542 20.3838 12.6161 20.0457 12.3175 19.6742C12.0604 19.3179 11.8407 18.9384 11.6585 18.5375C11.4905 18.1073 11.369 17.661 11.2951 17.2044C11.2455 16.7358 11.2455 16.2641 11.2951 15.7955C11.369 15.339 11.4905 14.8926 11.6585 14.4624C11.8397 14.0626 12.0604 13.682 12.3175 13.3257C12.6161 12.9542 12.9542 12.6161 13.3256 12.3175C13.6819 12.0604 14.0625 11.8408 14.4623 11.6586C14.8925 11.4905 15.3389 11.3691 15.7954 11.2952C16.2641 11.2456 16.7358 11.2456 17.2044 11.2952C17.6609 11.3691 18.1073 11.4905 18.5375 11.6586C18.9373 11.8397 19.3179 12.0604 19.6742 12.3175C20.0457 12.6161 20.3838 12.9542 20.6824 13.3257C20.9395 13.682 21.1591 14.0615 21.3413 14.4624C21.5093 14.8936 21.6308 15.34 21.7047 15.7965C21.73 16.0303 21.7432 16.2651 21.7432 16.5C21.7421 16.7348 21.729 16.9696 21.7047 17.2034Z" fill="#1D1D1E"/>
<path d="M16.4998 7.38098C17.1577 7.35163 17.7145 6.84755 17.7145 6.16633C17.7145 5.61063 17.7145 5.05392 17.7145 4.49821C17.7145 3.60747 17.7145 2.71673 17.7145 1.82497C17.7145 1.62152 17.7145 1.41807 17.7145 1.21461C17.7145 0.902853 17.5788 0.575909 17.3592 0.355248C17.1486 0.144709 16.8025 -0.0142078 16.4998 -3.68668e-05C15.8419 0.0293172 15.2852 0.533397 15.2852 1.21461C15.2852 1.77031 15.2852 2.32703 15.2852 2.88273C15.2852 3.77347 15.2852 4.66422 15.2852 5.55597C15.2852 5.75943 15.2852 5.96288 15.2852 6.16633C15.2852 6.47809 15.4208 6.80504 15.6404 7.0257C15.851 7.23624 16.1972 7.39515 16.4998 7.38098Z" fill="#1D1D1E"/>
<path d="M16.4998 25.6179C15.8419 25.6473 15.2852 26.1514 15.2852 26.8326C15.2852 27.3883 15.2852 27.945 15.2852 28.5007C15.2852 29.3915 15.2852 30.2822 15.2852 31.174C15.2852 31.3774 15.2852 31.5809 15.2852 31.7843C15.2852 32.0961 15.4208 32.423 15.6404 32.6437C15.851 32.8542 16.1972 33.0132 16.4998 32.999C17.1577 32.9696 17.7145 32.4656 17.7145 31.7843C17.7145 31.2286 17.7145 30.6719 17.7145 30.1162C17.7145 29.2255 17.7145 28.3347 17.7145 27.443C17.7145 27.2395 17.7145 27.0361 17.7145 26.8326C17.7145 26.5208 17.5788 26.1939 17.3592 25.9732C17.1476 25.7637 16.8025 25.6048 16.4998 25.6179Z" fill="#1D1D1E"/>
<path d="M6.01232 7.73022C6.64192 8.35982 7.27252 8.99042 7.90212 9.62001C8.04585 9.76375 8.18958 9.90748 8.33332 10.0512C8.55398 10.2719 8.88092 10.4065 9.19268 10.4065C9.49027 10.4065 9.84657 10.2739 10.052 10.0512C10.2646 9.81942 10.4225 9.51576 10.4073 9.19185C10.3932 8.86997 10.2838 8.56529 10.052 8.33249C9.65931 7.93975 9.26556 7.546 8.87282 7.15326C8.24323 6.52367 7.61262 5.89307 6.98303 5.26347C6.8393 5.11974 6.69556 4.97601 6.55183 4.83227C6.33117 4.61161 6.00423 4.47699 5.69247 4.47699C5.39488 4.47699 5.03858 4.60959 4.8331 4.83227C4.62054 5.06407 4.46263 5.36773 4.47782 5.69164C4.49199 6.01352 4.60131 6.31819 4.8331 6.551C5.22584 6.94374 5.61959 7.33749 6.01232 7.73022Z" fill="#1D1D1E"/>
<path d="M26.9863 25.2687C26.3568 24.6392 25.7261 24.0085 25.0966 23.379C24.9528 23.2352 24.8091 23.0915 24.6654 22.9478C24.4447 22.7271 24.1178 22.5925 23.806 22.5925C23.5084 22.5925 23.1521 22.7251 22.9466 22.9478C22.7341 23.1796 22.5762 23.4832 22.5913 23.8071C22.6055 24.129 22.7148 24.4337 22.9466 24.6665C23.3394 25.0592 23.7331 25.453 24.1258 25.8457C24.7554 26.4753 25.386 27.1059 26.0156 27.7355C26.1594 27.8792 26.3031 28.023 26.4468 28.1667C26.6675 28.3874 26.9944 28.522 27.3062 28.522C27.6038 28.522 27.9601 28.3894 28.1656 28.1667C28.3781 27.9349 28.536 27.6312 28.5209 27.3073C28.5067 26.9855 28.3974 26.6808 28.1656 26.448C27.7728 26.0552 27.3801 25.6625 26.9863 25.2687Z" fill="#1D1D1E"/>
<path d="M6.16627 17.7146C6.47803 17.7146 6.80498 17.579 7.02564 17.3594C7.23618 17.1488 7.39509 16.8026 7.38092 16.5C7.35157 15.8421 6.84749 15.2853 6.16627 15.2853C5.61057 15.2853 5.05386 15.2853 4.49815 15.2853C3.60741 15.2853 2.71667 15.2853 1.82491 15.2853C1.62146 15.2853 1.41801 15.2853 1.21455 15.2853C0.902792 15.2853 0.575848 15.421 0.355187 15.6406C0.144648 15.8512 -0.0142688 16.1973 -9.7902e-05 16.5C0.0292561 17.1579 0.533336 17.7146 1.21455 17.7146C1.77025 17.7146 2.32697 17.7146 2.88267 17.7146C3.77341 17.7146 4.66416 17.7146 5.55591 17.7146C5.75937 17.7146 5.96282 17.7146 6.16627 17.7146Z" fill="#1D1D1E"/>
<path d="M31.7842 15.2853C31.2285 15.2853 30.6718 15.2853 30.1161 15.2853C29.2253 15.2853 28.3346 15.2853 27.4428 15.2853C27.2394 15.2853 27.0359 15.2853 26.8325 15.2853C26.5207 15.2853 26.1938 15.421 25.9731 15.6406C25.7626 15.8512 25.6037 16.1973 25.6178 16.5C25.6472 17.1579 26.1513 17.7146 26.8325 17.7146C27.3882 17.7146 27.9449 17.7146 28.5006 17.7146C29.3913 17.7146 30.2821 17.7146 31.1739 17.7146C31.3773 17.7146 31.5808 17.7146 31.7842 17.7146C32.096 17.7146 32.4229 17.579 32.6436 17.3594C32.8541 17.1488 33.013 16.8026 32.9989 16.5C32.9695 15.8421 32.4654 15.2853 31.7842 15.2853Z" fill="#1D1D1E"/>
<path d="M9.19289 22.5915C8.87101 22.6056 8.56634 22.7149 8.33353 22.9467C7.94079 23.3395 7.54704 23.7332 7.15431 24.126C6.52471 24.7556 5.89411 25.3862 5.26451 26.0158C5.12078 26.1595 4.97705 26.3032 4.83331 26.447C4.61265 26.6676 4.47803 26.9946 4.47803 27.3063C4.47803 27.6039 4.61063 27.9602 4.83331 28.1657C5.06511 28.3783 5.36877 28.5362 5.69268 28.521C6.01456 28.5068 6.31923 28.3975 6.55204 28.1657C6.94478 27.773 7.33853 27.3792 7.73126 26.9865C8.36086 26.3569 8.99146 25.7263 9.62106 25.0967C9.76479 24.9529 9.90852 24.8092 10.0523 24.6655C10.2729 24.4448 10.4075 24.1179 10.4075 23.8061C10.4075 23.5085 10.2749 23.1522 10.0523 22.9467C9.82046 22.7352 9.5168 22.5773 9.19289 22.5915Z" fill="#1D1D1E"/>
<path d="M23.806 10.4075C24.1278 10.3933 24.4325 10.284 24.6653 10.0522C25.0581 9.65949 25.4518 9.26574 25.8445 8.87301C26.4741 8.24341 27.1047 7.61281 27.7343 6.98321C27.8781 6.83948 28.0218 6.69575 28.1655 6.55201C28.3862 6.33135 28.5208 6.00441 28.5208 5.69265C28.5208 5.39506 28.3882 5.03876 28.1655 4.83328C27.9337 4.62072 27.6301 4.46282 27.3062 4.478C26.9843 4.49217 26.6796 4.60149 26.4468 4.83328C26.0541 5.22602 25.6603 5.61977 25.2676 6.01251C24.638 6.6421 24.0074 7.27271 23.3778 7.9023C23.2341 8.04603 23.0903 8.18977 22.9466 8.3335C22.7259 8.55416 22.5913 8.8811 22.5913 9.19286C22.5913 9.49045 22.7239 9.84675 22.9466 10.0522C23.1784 10.2648 23.4831 10.4227 23.806 10.4075Z" fill="#1D1D1E"/>
</svg>
