<svg width="32" height="34" viewBox="0 0 32 34" fill="none" xmlns="http://www.w3.org/2000/svg">
<g clip-path="url(#clip0_145_10)">
<path d="M31.6885 24.7102C31.3432 24.2643 30.7239 24.0233 30.1661 24.192C29.397 24.4246 28.6122 24.5969 27.8178 24.7138C27.1804 24.7897 26.5393 24.8295 25.897 24.8307C25.2474 24.8295 24.5991 24.7885 23.9556 24.7114C22.6928 24.5246 21.4565 24.1896 20.2733 23.7087C19.1312 23.2098 18.0506 22.5796 17.0546 21.8324C16.0791 21.0612 15.1965 20.1803 14.4238 19.2066C13.6753 18.2124 13.0439 17.1339 12.544 15.9939C12.0635 14.8141 11.7267 13.5789 11.5407 12.3196C11.385 11.0277 11.3862 9.72023 11.542 8.42839C11.7315 7.16186 12.0708 5.92184 12.5561 4.73725C12.9497 3.84308 13.423 2.98748 13.9723 2.17887C14.0206 2.06318 14.0701 1.9487 14.1184 1.83302C14.1353 1.70528 14.1534 1.57633 14.1703 1.4486C14.1703 1.12684 14.0544 0.824367 13.8588 0.572506C13.5147 0.127834 12.8929 -0.116797 12.3364 0.054324C11.2763 0.378489 10.2417 0.805086 9.26133 1.31845C8.28581 1.82819 7.38636 2.4464 6.52071 3.12486C4.89204 4.40224 3.50362 6.0098 2.44239 7.78368C1.36063 9.59129 0.596394 11.623 0.258344 13.703C0.0736246 14.8394 -0.0277903 15.9854 0.00722197 17.1375C0.0398196 18.2365 0.178661 19.3403 0.411674 20.4141C0.836651 22.3771 1.63469 24.2908 2.72369 25.9791C3.29113 26.8588 3.93946 27.6951 4.65057 28.464C5.36531 29.2364 6.15852 29.9161 6.99519 30.5536C8.59006 31.7683 10.4276 32.6781 12.346 33.2614C14.3828 33.8796 16.5716 34.1194 18.6941 33.9459C21.0979 33.7494 23.4196 33.0891 25.5517 31.9611C27.5003 30.9308 29.2763 29.4967 30.6816 27.7988C31.0764 27.3216 31.4531 26.8287 31.802 26.3177C31.8503 26.202 31.8998 26.0876 31.9481 25.9719C31.965 25.8441 31.9831 25.7152 32 25.5875C32 25.2645 31.8841 24.962 31.6885 24.7102ZM22.9982 29.9848C21.8175 30.4632 20.5824 30.7994 19.3219 30.9862C18.0313 31.1416 16.7238 31.1416 15.4331 30.9862C14.1703 30.7994 12.934 30.4644 11.7508 29.9848C10.6087 29.4859 9.52815 28.8556 8.53211 28.1085C7.55659 27.3372 6.67404 26.4563 5.90136 25.4826C5.15282 24.4884 4.52139 23.4099 4.02156 22.2699C3.54105 21.0889 3.2042 19.8549 3.01707 18.5944C2.86133 17.3062 2.86133 16.0035 3.01707 14.7153C3.2042 13.4524 3.54225 12.2159 4.02397 11.0338C4.5226 9.89617 5.15282 8.82125 5.90015 7.82947C6.67163 6.85818 7.55176 5.97847 8.52486 5.20843C8.85808 4.95778 9.20096 4.72038 9.55229 4.49623C9.54867 4.50708 9.54384 4.51913 9.53901 4.52997C9.03314 5.90858 8.74097 7.34864 8.5973 8.80919C8.47778 10.0227 8.4983 11.2483 8.65525 12.457C8.80979 13.65 9.04642 14.8177 9.44122 15.9565C10.2055 18.1654 11.3886 20.1827 12.9388 21.9325C14.3912 23.5714 16.1962 24.95 18.1665 25.914C20.3288 26.9709 22.659 27.5794 25.0651 27.7036C25.3416 27.718 25.6193 27.7241 25.897 27.7253C26.1686 27.7253 26.4403 27.7156 26.7131 27.7024C26.5538 27.8385 26.3932 27.9723 26.229 28.1024C25.2281 28.852 24.144 29.4847 22.9982 29.9848Z" fill="#E6E6E6"/>
</g>
<defs>
<clipPath id="clip0_145_10">
<rect width="32" height="34" fill="white"/>
</clipPath>
</defs>
</svg>
